<svg xmlns="http://www.w3.org/2000/svg" viewBox="0 0 512 512" width="40" height="40">
  <rect width="512" height="512" fill="white"/>
  <path fill="black" d="M349.33 69.33H162.67C111.79 69.33 69.33 111.79 69.33 162.67v186.66c0 50.88 42.46 93.34 93.34 93.34h186.66c50.88 0 93.34-42.46 93.34-93.34V162.67c0-50.88-42.46-93.34-93.34-93.34zm61.34 280c0 33.89-27.45 61.34-61.34 61.34H162.67c-33.89 0-61.34-27.45-61.34-61.34V162.67c0-33.89 27.45-61.34 61.34-61.34h186.66c33.89 0 61.34 27.45 61.34 61.34v186.66z"/>
  <path fill="black" d="M256 162.67c-51.46 0-93.33 41.87-93.33 93.33S204.54 349.33 256 349.33 349.33 307.46 349.33 256 307.46 162.67 256 162.67zm0 153.33c-33.09 0-60-26.91-60-60s26.91-60 60-60 60 26.91 60 60-26.91 60-60 60z"/>
  <circle fill="black" cx="349.33" cy="162.67" r="21.33"/>
</svg>