<svg xmlns="http://www.w3.org/2000/svg" viewBox="0 0 512 512" width="40" height="40">
  <rect width="512" height="512" fill="white"/>
  <path fill="black" d="M256.05 52.02c-112.9 0-204.8 91.1-204.8 203.2 0 36.2 9.6 71.4 27.9 102.5L52.3 460l106.7-27.9c29.8 16.3 63.4 24.9 96.9 24.9h.2c112.9 0 204.8-91.1 204.8-203.2s-91.9-201.8-204.8-201.8zm0 378.1c-29.2 0-57.9-7.9-83.1-22.9l-5.9-3.5-63.3 16.5 16.9-61.8-3.9-6.3c-16.8-27.2-25.7-58.7-25.7-90.3 0-94.1 78.3-170.8 174.6-170.8 93.6 0 169.8 75.6 169.8 168.5s-76.2 170.6-169.4 170.6z"/>
  <path fill="black" d="M372.3 320.6c-5.1-2.6-30.4-15.1-35.1-16.8-4.7-1.8-8.1-2.6-11.5 2.6-3.5 5.1-13.3 16.8-16.4 20.3-3 3.5-6 3.9-11.1 1.3-30.2-15.1-49.9-26.9-69.8-61.3-5.3-9.1 5.3-8.5 15.1-28.3 1.7-3.5.9-6.5-.4-9.1-1.3-2.6-11.5-27.6-15.8-37.8-4.2-10.2-8.5-8.8-11.5-9-3-.2-6.5-.2-9.9-.2s-9.1 1.3-13.9 6.5c-4.7 5.1-18.2 17.8-18.2 43.4s18.6 50.3 21.2 53.8c2.6 3.5 36.5 55.8 88.6 78.2 12.4 5.3 22 8.4 29.5 10.7 12.4 3.9 23.7 3.4 32.7 2.1 10-1.5 30.4-12.4 34.7-24.4 4.3-12 4.3-22.3 3-24.4-1.3-2.1-4.8-3.4-9.9-6z"/>
</svg>